# xmcd CD database file
#
# Track frame offsets:
#	150
#	19804
#	37961
#	60383
#	79207
#	106026
#	131766
#	156767
#	174182
#	196658
#	216735
#	234612
#	256611
#	277163
#	306194
#
# Disc length: 4354 seconds
#
# Revision: 1
# Processed by: cddbd v1.5.2PL0 Copyright (c) Steve Scherf et al.
# Submitted via: CDex 1.51
#
DISCID=c611000f
DTITLE=Various Artist - Velvet Bar
DYEAR=2008
DGENRE=Jazz
TTITLE0=S-Tone Inc. - Some Kind Of Blues
TTITLE1=Mario Biondi - Slow Hot Wind
TTITLE2=Stacey Kent - So Romantic
TTITLE3=Quintetto Lo Greco feat. Felix Imevbore - Shades Of Blue
TTITLE4=Gabin - La Maison
TTITLE5=Rosalia De Souza - Bossa 31
TTITLE6=The Invisible Session - I Knew The Way
TTITLE7=Jazzamor - Abivalent Love Song
TTITLE8=Olive - Curious
TTITLE9=Nekta - What S On Her Mind  
TTITLE10=Re:Jazz - All I Need  
TTITLE11=Nicola Conte - Wanin Moon
TTITLE12=Taxi - No Way Talk
TTITLE13=Dave Brubeck - Pennies From Heaven
TTITLE14=Traincha - The Look Of Love
EXTD=YEAR: 2008
EXTT0=
EXTT1=
EXTT2=
EXTT3=
EXTT4=
EXTT5=
EXTT6=
EXTT7=
EXTT8=
EXTT9=
EXTT10=
EXTT11=
EXTT12=
EXTT13=
EXTT14=
PLAYORDER=
